<?xml version="1.0" standalone="no"?>
<!DOCTYPE svg PUBLIC "-//W3C//DTD SVG 20010904//EN"
 "http://www.w3.org/TR/2001/REC-SVG-20010904/DTD/svg10.dtd">
<svg version="1.0" xmlns="http://www.w3.org/2000/svg"
 width="184.000000pt" height="184.000000pt" viewBox="0 0 184.000000 184.000000"
 preserveAspectRatio="xMidYMid meet">
<metadata>
Created by potrace 1.11, written by Peter Selinger 2001-2013
</metadata>
<g transform="translate(0.000000,184.000000) scale(0.100000,-0.100000)"
fill="#000000" stroke="none">
<path d="M875 1393 c20 -47 14 -80 -24 -143 -33 -55 -45 -121 -28 -159 13 -29
44 -61 61 -62 6 0 19 -2 28 -4 29 -5 41 19 29 60 -9 34 -7 74 6 105 23 55 25
106 7 142 -26 51 -98 107 -79 61z"/>
<path d="M976 1323 c11 -24 10 -108 -3 -164 -11 -49 -3 -79 22 -79 32 0 42 27
40 109 -2 70 -6 86 -29 116 -29 38 -43 46 -30 18z"/>
<path d="M768 1105 c-3 -3 -14 -7 -25 -9 -33 -7 -90 -33 -98 -46 -10 -16 -9
-268 1 -313 19 -88 112 -160 224 -173 30 -3 57 -7 60 -7 25 -5 117 19 154 39
41 23 106 88 106 105 0 15 58 66 103 93 58 33 83 77 73 130 -11 57 -44 89 -94
88 -23 0 -46 -3 -51 -6 -5 -3 -11 7 -14 22 -6 29 -44 54 -109 70 -28 8 -38 7
-42 -3 -6 -16 2 -25 25 -25 28 0 61 -33 54 -53 -10 -26 -99 -47 -201 -48 -190
-2 -289 52 -178 97 39 16 44 21 32 32 -8 6 -17 9 -20 7z m532 -180 c13 -33 5
-51 -36 -76 -47 -29 -59 -22 -55 32 4 54 15 69 52 69 22 0 32 -6 39 -25z"/>
<path d="M474 696 c-86 -26 -119 -47 -128 -81 -31 -124 318 -211 729 -182 102
7 136 12 217 33 201 51 268 143 149 204 -38 19 -47 22 -127 38 -45 10 -84 0
-84 -20 0 -7 11 -26 25 -42 39 -45 32 -66 -29 -91 -66 -28 -166 -42 -301 -42
-143 -1 -256 16 -322 48 -51 24 -55 48 -17 84 26 24 27 64 1 66 -7 0 -19 2
-27 3 -8 1 -47 -7 -86 -18z"/>
</g>
</svg>
